<svg width="120" height="30" viewBox="0 0 120 30" fill="none" xmlns="http://www.w3.org/2000/svg">
<g id="social media">
<g id="reddit">
<rect id="back" opacity="0.3" x="90.5" y="0.5" width="29" height="29" stroke="#2D383F"/>
<path id="icon/Reddit" d="M106.362 7C105.913 7 105.491 7.24401 105.221 7.59589C104.951 7.94777 104.802 8.37671 104.694 8.82877C104.521 9.55565 104.468 10.3622 104.455 11.089C103.194 11.1789 102.051 11.5796 101.102 12.1986C100.717 11.8519 100.253 11.6592 99.8085 11.6644C99.3021 11.6695 98.8213 11.9033 98.4638 12.3836C97.7808 13.3005 97.8595 14.8005 98.651 15.6918C98.6021 15.9666 98.5659 16.2491 98.5659 16.5342C98.5659 19.5548 101.447 22 105 22C108.553 22 111.434 19.5522 111.434 16.5342C111.434 16.2491 111.398 15.9666 111.349 15.6918C112.14 14.8005 112.219 13.3005 111.536 12.3836C111.179 11.9033 110.698 11.6695 110.192 11.6644C109.747 11.6592 109.283 11.8519 108.898 12.1986C107.953 11.5822 106.817 11.1815 105.562 11.089C105.579 10.4187 105.623 9.7226 105.749 9.19863C105.828 8.86986 105.921 8.63099 106.021 8.5C106.121 8.36901 106.194 8.31507 106.362 8.31507C106.726 8.31507 106.772 8.44092 106.991 8.74658C107.102 8.90068 107.23 9.09332 107.434 9.28082C107.638 9.46832 107.94 9.63014 108.268 9.63014V8.31507C108.177 8.31507 108.16 8.3125 108.098 8.25342C108.036 8.19435 107.951 8.05822 107.826 7.88356C107.574 7.53168 107.087 7 106.362 7ZM109.902 7.12329C109.055 7.12329 108.37 7.95034 108.37 8.9726C108.37 9.99486 109.055 10.8219 109.902 10.8219C110.749 10.8219 111.434 9.99486 111.434 8.9726C111.434 7.95034 110.749 7.12329 109.902 7.12329ZM109.902 7.78082C110.447 7.78082 110.889 8.31507 110.889 8.9726C110.889 9.63014 110.447 10.1644 109.902 10.1644C109.357 10.1644 108.915 9.63014 108.915 8.9726C108.915 8.31507 109.357 7.78082 109.902 7.78082ZM105 12.1164C108.015 12.1164 110.566 14.143 110.566 16.5342C110.566 18.9281 108.015 20.9521 105 20.9521C101.985 20.9521 99.434 18.9281 99.434 16.5342C99.434 14.143 101.985 12.1164 105 12.1164ZM99.8255 12.7123C99.9766 12.7149 100.134 12.756 100.285 12.8356C99.7383 13.3365 99.3042 13.9118 99.0085 14.5616C98.8042 14.0531 98.8595 13.4187 99.1106 13.0822C99.2936 12.8356 99.5468 12.7098 99.8255 12.7123ZM110.174 12.7123C110.453 12.7098 110.706 12.8356 110.889 13.0822C111.14 13.4187 111.196 14.0531 110.992 14.5616C110.696 13.9118 110.262 13.3365 109.715 12.8356C109.866 12.756 110.023 12.7149 110.174 12.7123ZM102.821 14.3562C102.277 14.3562 101.834 14.8904 101.834 15.5479C101.834 16.2055 102.277 16.7397 102.821 16.7397C103.366 16.7397 103.809 16.2055 103.809 15.5479C103.809 14.8904 103.366 14.3562 102.821 14.3562ZM107.179 14.3562C106.634 14.3562 106.191 14.8904 106.191 15.5479C106.191 16.2055 106.634 16.7397 107.179 16.7397C107.723 16.7397 108.166 16.2055 108.166 15.5479C108.166 14.8904 107.723 14.3562 107.179 14.3562ZM102.294 18.4041C102.64 19.2697 103.713 20.1096 105 20.1096C106.287 20.1096 107.377 19.2697 107.723 18.4041C107.094 18.8947 106.1 19.226 105 19.226C103.9 19.226 102.923 18.8947 102.294 18.4041Z" fill="#2D383F"/>
</g>
<g id="ok">
<rect id="back_2" opacity="0.3" x="45.5" y="0.5" width="29" height="29" stroke="#2D383F"/>
<path id="icon/odnoklassniki" d="M59.5 9.42035C60.4159 9.42035 61.1607 10.1874 61.1607 11.1305C61.1607 12.0708 60.4159 12.8378 59.5 12.8378C58.5841 12.8378 57.8393 12.0708 57.8393 11.1305C57.8393 10.1874 58.5841 9.42035 59.5 9.42035ZM59.5 15.2582C61.7124 15.2582 63.5111 13.406 63.5111 11.1305C63.5111 8.85219 61.7124 7 59.5 7C57.2876 7 55.4917 8.85219 55.4917 11.1305C55.4917 13.406 57.2876 15.2582 59.5 15.2582ZM61.1221 18.6273C61.9386 18.4342 62.7248 18.1018 63.4504 17.6331C63.9993 17.278 64.1649 16.5308 63.82 15.9655C63.4724 15.3974 62.7497 15.2269 62.1979 15.5848C60.5566 16.6473 58.4434 16.6473 56.7993 15.5848C56.2503 15.2269 55.5248 15.3974 55.18 15.9655C54.8351 16.5308 55.0007 17.278 55.5496 17.6331C56.2752 18.1018 57.0614 18.4342 57.8779 18.6273L55.6351 20.934C55.1772 21.4056 55.1772 22.1726 55.6351 22.6442C55.8669 22.88 56.1648 22.9993 56.4655 22.9993C56.7662 22.9993 57.0669 22.88 57.2986 22.6442L59.5 20.3772L61.7042 22.6442C62.1621 23.1186 62.9042 23.1186 63.3649 22.6442C63.8228 22.1726 63.8228 21.4056 63.3649 20.934L61.1221 18.6273Z" fill="#2D383F"/>
</g>
<g id="vk">
<rect id="back_3" opacity="0.3" x="0.5" y="0.5" width="29" height="29" stroke="#2D383F"/>
<path id="icon/vk" d="M22.8574 19.0274C22.8144 18.9564 22.5484 18.3866 21.2683 17.2153C19.9282 15.9888 20.1082 16.188 21.7223 14.0673C22.7054 12.7757 23.0984 11.987 22.9754 11.6498C22.8584 11.3284 22.1353 11.4132 22.1353 11.4132L19.7312 11.427C19.7312 11.427 19.5531 11.4033 19.4201 11.4812C19.2911 11.5581 19.2081 11.7356 19.2081 11.7356C19.2081 11.7356 18.8271 12.7353 18.3191 13.5852C17.248 15.3785 16.8189 15.4732 16.6439 15.3618C16.2369 15.1025 16.3389 14.3187 16.3389 13.7626C16.3389 12.0245 16.6059 11.2998 15.8179 11.1125C15.5559 11.0504 15.3638 11.009 14.6948 11.0021C13.8367 10.9932 13.1097 11.005 12.6986 11.2032C12.4246 11.3353 12.2136 11.6301 12.3426 11.6468C12.5016 11.6676 12.8617 11.7425 13.0527 11.9988C13.2997 12.3291 13.2907 13.0725 13.2907 13.0725C13.2907 13.0725 13.4327 15.1183 12.9597 15.3726C12.6346 15.5471 12.1896 15.1912 11.2345 13.5635C10.7455 12.7304 10.3755 11.8085 10.3755 11.8085C10.3755 11.8085 10.3045 11.637 10.1775 11.5453C10.0234 11.4339 9.80743 11.3984 9.80743 11.3984L7.52126 11.4122C7.52126 11.4122 7.17824 11.4221 7.05223 11.569C6.94022 11.7001 7.04323 11.9702 7.04323 11.9702C7.04323 11.9702 8.83336 16.0983 10.8595 18.1795C12.7186 20.0873 14.8288 19.9621 14.8288 19.9621H15.7849C15.7849 19.9621 16.0739 19.9305 16.2209 19.7738C16.3569 19.6298 16.3519 19.3597 16.3519 19.3597C16.3519 19.3597 16.3329 18.0948 16.929 17.9084C17.516 17.725 18.2701 19.131 19.0691 19.6722C19.6732 20.0814 20.1322 19.9917 20.1322 19.9917L22.2693 19.9621C22.2693 19.9621 23.3874 19.8941 22.8574 19.0274Z" fill="#2D383F"/>
</g>
</g>
</svg>
