<?xml version="1.0" standalone="no"?><!DOCTYPE svg PUBLIC "-//W3C//DTD SVG 20010904//EN"
 "http://www.w3.org/TR/2001/REC-SVG-20010904/DTD/svg10.dtd"><svg version="1.0" xmlns="http://www.w3.org/2000/svg" width="32.000000pt" height="32.000000pt" viewBox="0 0 32.000000 32.000000" preserveAspectRatio="xMidYMid meet"><g transform="translate(0.000000,32.000000) scale(0.100000,-0.100000)" fill="#000000" stroke="none"><path d="M85 297 c-47 -26 -85 -88 -85 -137 0 -77 82 -159 158 -160 46 0 109
35 132 73 11 18 20 37 20 42 0 6 -24 37 -54 70 -53 60 -54 60 -75 41 -16 -14
-18 -22 -10 -32 6 -8 16 -11 21 -8 13 8 78 -55 78 -76 0 -23 -41 -59 -78 -69
-89 -26 -177 62 -152 151 28 97 150 124 214 47 14 -17 26 -36 26 -43 0 -7 9
-21 20 -31 19 -18 20 -17 20 1 0 40 -44 109 -85 131 -51 29 -99 29 -150 0z"/><path d="M102 157 c-18 -18 -32 -36 -32 -40 0 -14 44 -7 62 10 17 15 19 15 36
0 19 -18 52 -23 52 -9 0 11 -64 72 -76 72 -6 0 -24 -15 -42 -33z"/></g></svg>